<?xml version="1.0" standalone="no"?>
<!DOCTYPE svg PUBLIC "-//W3C//DTD SVG 20010904//EN"
 "http://www.w3.org/TR/2001/REC-SVG-20010904/DTD/svg10.dtd">
<svg version="1.0" xmlns="http://www.w3.org/2000/svg"
 width="225.000000pt" height="225.000000pt" viewBox="0 0 225.000000 225.000000"
 preserveAspectRatio="xMidYMid meet">

<g transform="translate(0.000000,225.000000) scale(0.100000,-0.100000)"
fill="#000000" stroke="none">
<path d="M930 1900 c-99 -26 -241 -97 -314 -158 -126 -105 -225 -264 -266
-426 -27 -109 -27 -274 0 -382 71 -276 273 -489 544 -573 37 -11 72 -21 77
-21 5 0 9 122 9 280 l0 280 -95 0 -95 0 0 115 0 115 94 0 93 0 6 128 c6 160
22 209 92 278 70 70 128 90 264 87 161 -2 151 6 151 -118 l0 -105 -65 0 c-74
0 -128 -18 -144 -48 -6 -12 -11 -66 -11 -121 l0 -101 110 0 c109 0 110 0 105
-22 -2 -13 -9 -52 -15 -88 -6 -36 -13 -77 -16 -92 l-6 -28 -89 0 -89 0 0 -280
c0 -158 4 -280 9 -280 5 0 40 10 77 21 271 84 473 297 544 573 27 108 27 273
0 382 -41 162 -140 321 -266 426 -75 62 -216 132 -318 158 -107 27 -281 27
-386 0z"/>
</g>
</svg>
