<?xml version="1.0" standalone="no"?>
<!DOCTYPE svg PUBLIC "-//W3C//DTD SVG 20010904//EN"
 "http://www.w3.org/TR/2001/REC-SVG-20010904/DTD/svg10.dtd">
<svg version="1.0" xmlns="http://www.w3.org/2000/svg"
 width="512.000000pt" height="512.000000pt" viewBox="0 0 512.000000 512.000000"
 preserveAspectRatio="xMidYMid meet">

<g transform="translate(0.000000,512.000000) scale(0.100000,-0.100000)"
fill="#000000" stroke="none">
<path d="M1307 4674 c-408 -74 -733 -375 -845 -782 l-27 -97 -2 -700 c-2 -690
5 -1067 18 -975 l6 45 3 -50 c3 -42 5 -36 10 35 6 82 6 83 8 23 l2 -63 120 0
c100 0 120 -2 120 -15 0 -11 11 -15 40 -15 22 0 40 -4 40 -10 0 -5 18 -10 40
-10 30 0 40 -4 40 -16 0 -12 10 -15 43 -14 65 3 67 2 67 -30 0 -16 5 -30 10
-30 6 0 10 14 10 30 0 19 5 30 14 30 7 0 17 15 21 33 4 17 10 300 15 627 6
475 11 608 23 661 41 176 134 337 268 463 127 119 263 191 419 221 99 18 765
27 1230 16 383 -9 403 -12 555 -88 251 -126 437 -368 485 -632 8 -43 11 -286
11 -775 0 -774 0 -781 -57 -922 -67 -168 -191 -321 -344 -423 -93 -62 -156
-90 -280 -123 -70 -19 -120 -21 -715 -28 -352 -5 -650 -11 -661 -15 -12 -4
-32 -1 -45 5 -19 11 -24 10 -36 -6 -18 -24 -17 -29 12 -44 22 -12 25 -20 25
-67 0 -40 4 -53 15 -53 12 0 15 -16 15 -80 0 -47 4 -80 10 -80 6 0 10 -47 10
-120 l0 -120 43 -2 c23 -1 -7 -5 -68 -8 l-110 -6 107 -2 c75 -1 108 -6 110
-14 4 -10 184 -13 859 -13 l854 0 100 28 c375 103 659 388 763 766 l27 96 3
1185 c2 812 -1 1211 -8 1268 -50 385 -338 730 -715 859 -158 54 -144 53 -1409
52 -964 -1 -1185 -3 -1249 -15z m641 -3645 c-2 -6 -8 -10 -13 -10 -5 0 -11 4
-13 10 -2 6 4 11 13 11 9 0 15 -5 13 -11z"/>
<path d="M1806 3834 c-192 -42 -380 -191 -467 -369 -71 -147 -72 -163 -65
-880 7 -746 7 -749 24 -764 9 -9 12 -9 12 2 0 15 33 25 63 19 13 -3 17 -13 17
-42 0 -26 7 -45 19 -57 11 -10 21 -31 24 -48 l4 -30 2 33 c1 39 10 40 49 7 17
-14 37 -25 46 -25 12 0 16 -10 16 -40 l0 -40 40 0 40 0 0 -40 0 -40 40 0 40 0
0 -50 c0 -43 -3 -50 -19 -50 -19 0 -38 -17 -29 -25 2 -3 19 -1 36 4 25 8 32 7
32 -5 0 -8 -5 -14 -11 -14 -6 0 -17 -7 -25 -15 -9 -9 -11 -15 -4 -15 6 0 8 -5
4 -12 -4 -7 -3 -8 5 -4 6 4 9 11 6 16 -3 4 3 11 12 14 10 4 14 4 10 0 -4 -4 2
-14 13 -21 11 -8 18 -19 15 -24 -3 -5 0 -7 7 -5 7 2 28 7 46 10 36 6 45 -10
10 -17 l-23 -4 23 -2 c13 0 21 -4 19 -8 -8 -12 2 -12 743 -15 761 -3 742 -5
875 57 189 86 343 280 380 478 22 114 22 1378 1 1490 -45 234 -235 444 -476
523 -51 17 -109 19 -770 21 -604 1 -726 -1 -784 -13z m1635 -337 c58 -39 81
-84 77 -145 -5 -56 -25 -91 -72 -126 -39 -29 -133 -29 -173 0 -100 74 -98 201
6 271 23 16 49 23 81 23 32 0 58 -7 81 -23z m-686 -218 c175 -54 326 -163 425
-309 51 -76 74 -123 101 -210 33 -105 33 -280 1 -394 -61 -214 -195 -377 -387
-472 -127 -62 -196 -78 -340 -78 -203 0 -367 64 -510 199 -46 43 -130 164
-162 232 -54 117 -68 182 -67 323 0 115 2 132 32 214 43 121 107 219 200 308
116 110 252 182 396 208 79 14 231 4 311 -21z m-985 -1860 c0 -5 4 -8 9 -5 5
3 11 -1 15 -9 7 -18 -24 -21 -42 -3 -16 16 -15 28 3 28 8 0 15 -5 15 -11z
m-10 -49 c0 -5 -4 -10 -10 -10 -5 0 -10 5 -10 10 0 6 5 10 10 10 6 0 10 -4 10
-10z m104 -16 c9 -3 16 -12 16 -20 0 -18 -16 -18 -23 0 -4 9 -15 13 -29 10
-21 -4 -21 -4 -3 5 11 5 21 10 22 10 1 1 8 -2 17 -5z m-71 -21 c-7 -2 -19 -2
-25 0 -7 3 -2 5 12 5 14 0 19 -2 13 -5z"/>
<path d="M2465 3093 c-207 -44 -377 -204 -430 -403 -73 -273 119 -589 396
-655 87 -20 161 -19 253 5 189 48 327 170 388 343 32 89 31 235 -1 332 -63
191 -197 323 -377 369 -57 15 -181 20 -229 9z"/>
<path d="M1051 1884 c0 -11 3 -14 6 -6 3 7 2 16 -1 19 -3 4 -6 -2 -5 -13z"/>
<path d="M1320 1780 c0 -11 -5 -20 -11 -20 -8 0 -9 -4 0 -13 6 -8 8 -17 4 -20
-3 -4 1 -7 9 -7 9 0 19 11 22 25 4 15 14 25 24 25 15 0 15 2 2 10 -23 15 -30
12 -30 -10 0 -11 -4 -20 -9 -20 -4 0 -6 11 -3 25 2 14 2 25 -2 25 -3 0 -6 -9
-6 -20z"/>
<path d="M1052 1740 c0 -14 2 -19 5 -12 2 6 2 18 0 25 -3 6 -5 1 -5 -13z"/>
<path d="M1349 1733 c-4 -23 -5 -86 -2 -75 3 6 9 10 14 7 17 -11 22 44 5 60
-9 9 -17 13 -17 8z"/>
<path d="M1385 1660 c-3 -5 1 -10 10 -10 9 0 13 5 10 10 -3 6 -8 10 -10 10 -2
0 -7 -4 -10 -10z"/>
<path d="M1051 1644 c0 -11 3 -14 6 -6 3 7 2 16 -1 19 -3 4 -6 -2 -5 -13z"/>
<path d="M1396 1595 c19 -29 21 -30 21 -11 0 7 -9 19 -19 25 -18 11 -18 11 -2
-14z"/>
<path d="M1469 1502 c-11 -14 -11 -15 1 -4 16 14 34 16 26 3 -3 -5 0 -11 7
-14 7 -3 13 3 13 12 0 22 -31 24 -47 3z"/>
<path d="M1554 1427 c-4 -6 -3 -9 1 -4 5 4 17 0 27 -10 10 -9 18 -12 18 -7 0
5 -9 15 -20 21 -15 10 -21 10 -26 0z"/>
<path d="M1608 1433 c6 -2 18 -2 25 0 6 3 1 5 -13 5 -14 0 -19 -2 -12 -5z"/>
<path d="M1207 1407 c-3 -8 1 -14 8 -14 7 0 11 6 8 14 -3 7 -6 13 -8 13 -2 0
-5 -6 -8 -13z"/>
<path d="M1631 1356 c2 -2 15 -9 29 -15 24 -11 24 -11 6 3 -16 13 -49 24 -35
12z"/>
<path d="M1708 1073 c7 -3 16 -2 19 1 4 3 -2 6 -13 5 -11 0 -14 -3 -6 -6z"/>
<path d="M1760 1006 c0 -20 20 -25 48 -13 17 8 19 13 10 19 -21 13 -58 9 -58
-6z"/>
</g>
</svg>
