<?xml version="1.0" standalone="no"?>
<!DOCTYPE svg PUBLIC "-//W3C//DTD SVG 20010904//EN"
 "http://www.w3.org/TR/2001/REC-SVG-20010904/DTD/svg10.dtd">
<svg version="1.0" xmlns="http://www.w3.org/2000/svg"
 width="980.000000pt" height="862.000000pt" viewBox="0 0 980.000000 862.000000"
 preserveAspectRatio="xMidYMid meet">

<g transform="translate(0.000000,862.000000) scale(0.100000,-0.100000)"
fill="#000000" stroke="none">
<path d="M4565 8604 c-488 -49 -848 -133 -1250 -291 -898 -354 -1666 -1020
-2155 -1868 -145 -251 -287 -578 -373 -855 -79 -255 -78 -238 -22 -457 26
-103 50 -192 53 -197 3 -6 16 48 29 120 67 368 185 726 353 1069 68 138 224
413 250 439 5 5 82 -10 177 -33 331 -80 583 -131 967 -195 114 -19 210 -37
212 -38 2 -2 -8 -87 -21 -188 -21 -164 -65 -597 -65 -643 0 -15 11 -17 90 -17
l89 0 5 33 c3 17 12 115 21 217 18 207 61 560 70 568 3 3 108 -6 233 -21 484
-58 1169 -107 1504 -107 l68 0 2 -342 3 -343 93 -3 92 -3 0 344 0 344 308 6
c454 10 802 34 1239 84 128 15 235 24 237 22 11 -10 65 -487 82 -706 l7 -93
93 0 94 0 -5 43 c-3 23 -12 121 -21 217 -8 96 -26 263 -39 369 -14 107 -22
197 -20 199 2 3 107 22 232 44 296 50 545 104 876 187 l267 68 90 -151 c257
-429 433 -900 523 -1391 27 -150 18 -161 92 104 l46 164 -36 127 c-272 980
-853 1808 -1682 2398 -497 353 -1112 612 -1703 716 -291 51 -377 58 -730 61
-184 2 -353 1 -375 -1z m235 -1224 l0 -1050 -32 0 c-204 1 -823 37 -1133 66
-241 22 -580 61 -601 68 -13 5 -14 -2 57 357 82 416 203 875 318 1209 l49 144
84 29 c391 132 841 217 1201 226 l57 1 0 -1050z m550 1024 c267 -29 549 -89
819 -176 l133 -43 24 -65 c44 -118 132 -402 187 -605 109 -399 250 -1075 225
-1075 -6 0 -64 -7 -131 -15 -451 -54 -1075 -94 -1484 -95 l-133 0 0 1051 0
1051 108 -6 c59 -4 172 -14 252 -22z m1323 -375 c595 -298 1067 -680 1475
-1194 40 -49 68 -93 64 -97 -11 -11 -421 -111 -642 -156 -248 -51 -619 -115
-635 -108 -7 2 -15 28 -19 58 -12 91 -114 588 -156 760 -52 213 -107 414 -170
617 -50 164 -54 181 -45 181 3 0 60 -28 128 -61z m-3521 -191 c-114 -382 -200
-735 -273 -1127 -21 -118 -41 -216 -42 -217 -16 -16 -1233 221 -1259 245 -7 7
105 149 236 300 254 292 626 600 983 814 84 51 417 226 421 222 2 -2 -28 -108
-66 -237z"/>
<path d="M4 5103 c3 -10 145 -481 316 -1048 171 -566 315 -1045 321 -1062 l11
-33 177 0 177 0 197 583 c203 600 267 808 317 1024 16 69 31 127 33 129 2 2
19 -58 37 -133 60 -255 128 -478 411 -1355 l80 -248 177 0 178 0 344 1068
c189 587 345 1073 348 1080 3 9 -38 12 -187 12 -189 0 -192 0 -201 -22 -16
-37 -317 -1104 -371 -1313 -26 -104 -60 -248 -74 -320 -15 -71 -28 -132 -31
-134 -5 -5 -8 6 -35 119 -52 224 -183 664 -455 1528 l-45 142 -164 0 c-91 0
-165 -2 -165 -5 0 -2 -77 -244 -171 -537 -236 -737 -270 -852 -360 -1200 -10
-39 -29 -52 -29 -20 0 41 -100 455 -259 1067 -95 363 -174 668 -177 678 -5 15
-24 17 -205 17 -186 0 -200 -1 -195 -17z"/>
<path d="M3340 5108 c0 -7 145 -493 322 -1080 l322 -1068 177 0 c159 0 178 2
184 18 25 64 374 1103 410 1221 43 143 107 388 121 464 3 21 10 35 14 30 4 -4
24 -80 45 -168 47 -201 110 -409 316 -1053 l164 -512 178 2 179 3 344 1065
c189 586 344 1071 344 1078 0 10 -42 12 -192 10 l-191 -3 -163 -575 c-171
-601 -260 -938 -290 -1102 -10 -54 -21 -98 -25 -98 -4 0 -19 51 -34 113 -15
61 -50 191 -77 287 -57 204 -406 1337 -420 1363 -8 16 -24 17 -170 15 l-160
-3 -145 -450 c-202 -631 -314 -995 -358 -1170 -21 -82 -42 -154 -46 -159 -4
-4 -12 18 -19 50 -33 168 -316 1291 -428 1699 l-8 30 -197 3 c-154 2 -197 0
-197 -10z"/>
<path d="M6674 5098 c3 -13 149 -498 325 -1078 l318 -1055 179 -3 179 -2 207
617 c206 612 265 804 308 998 12 55 24 107 27 115 3 8 27 -70 53 -175 61 -243
103 -384 308 -1025 l168 -525 179 0 179 0 348 1075 c191 591 348 1076 348
1078 0 1 -87 2 -194 2 l-194 0 -171 -602 c-197 -694 -229 -815 -271 -1028 -18
-85 -33 -157 -36 -159 -5 -5 -8 5 -40 139 -49 208 -190 681 -450 1508 l-45
142 -164 0 c-91 0 -165 -2 -165 -5 0 -2 -77 -244 -171 -537 -192 -601 -280
-888 -335 -1095 -20 -79 -40 -143 -44 -143 -4 0 -17 51 -30 113 -32 160 -231
949 -402 1590 l-20 77 -200 0 -200 0 6 -22z"/>
<path d="M4852 3197 c-41 -168 -42 -176 -42 -338 0 -91 -3 -193 -6 -226 l-7
-60 -321 -6 c-425 -9 -765 -31 -1199 -78 -104 -11 -190 -19 -191 -17 -7 8 -79
430 -101 593 -14 99 -28 196 -32 215 -5 31 -13 13 -70 -160 -50 -154 -62 -203
-58 -235 3 -22 21 -129 41 -238 20 -109 34 -200 33 -202 -2 -2 -103 -20 -223
-40 -386 -64 -860 -168 -1201 -264 -38 -11 -71 -19 -72 -18 -11 11 -124 213
-174 311 l-64 126 -97 0 c-63 0 -98 -4 -98 -11 0 -20 159 -324 239 -458 277
-460 670 -895 1102 -1221 949 -715 2145 -1005 3314 -804 1164 201 2193 872
2853 1860 135 202 342 580 342 623 0 7 -35 11 -97 11 l-98 0 -67 -133 c-37
-72 -90 -171 -118 -218 l-50 -86 -218 54 c-272 68 -736 161 -1037 208 -309 48
-278 39 -270 83 4 20 22 123 41 227 l33 190 -62 209 c-33 114 -62 204 -64 200
-1 -5 -16 -104 -33 -220 -26 -188 -94 -581 -104 -610 -3 -7 -24 -8 -68 -3
-515 65 -1113 109 -1474 109 l-144 0 0 231 0 230 -45 166 c-24 91 -46 167 -48
169 -1 2 -22 -74 -45 -169z m-52 -1912 l0 -1095 -34 0 c-59 0 -288 20 -406 35
-199 26 -590 111 -611 132 -22 22 -233 596 -348 947 -131 400 -283 959 -265
976 16 13 533 62 854 80 283 15 301 16 568 18 l242 2 0 -1095z m865 1069 c448
-29 965 -81 965 -98 0 -25 -104 -413 -156 -581 -102 -336 -319 -940 -443
-1235 -32 -77 -45 -97 -68 -107 -50 -20 -342 -81 -488 -102 -137 -20 -371 -41
-447 -41 l-38 0 0 1097 0 1096 223 -7 c122 -4 326 -13 452 -22z m-2712 -140
c111 -506 299 -1107 516 -1658 28 -71 50 -130 48 -132 -5 -6 -342 142 -469
206 -556 280 -1035 678 -1433 1192 -57 73 -100 136 -97 139 9 8 409 107 620
154 219 48 774 146 797 141 5 -2 13 -20 18 -42z m4232 -29 c389 -63 1062 -202
1087 -224 18 -16 -277 -374 -460 -557 -332 -333 -743 -626 -1142 -812 -140
-65 -402 -173 -407 -168 -7 6 37 137 115 346 152 407 294 870 387 1255 25 105
48 196 51 204 5 16 -5 17 369 -44z"/>
</g>
</svg>
